<mxfile host="app.diagrams.net" agent="Mozilla/5.0 (Windows NT 10.0; Win64; x64) AppleWebKit/537.36 (KHTML, like Gecko) Chrome/134.0.0.0 Safari/537.36" version="26.2.3">
  <diagram name="Sayfa -1" id="w8lzZe--l4xrcoLVsLoW">
    <mxGraphModel dx="857" dy="686" grid="1" gridSize="10" guides="1" tooltips="1" connect="1" arrows="1" fold="1" page="1" pageScale="1" pageWidth="827" pageHeight="1169" math="0" shadow="0">
      <root>
        <mxCell id="0" />
        <mxCell id="1" parent="0" />
        <mxCell id="AkrHsORLTKQXepWSKzQB-1" value="SALT01-Satış Belgeleri Yönetimi Aç" style="whiteSpace=wrap;strokeWidth=2;" vertex="1" parent="1">
          <mxGeometry x="138" y="20" width="260" height="54" as="geometry" />
        </mxCell>
        <mxCell id="AkrHsORLTKQXepWSKzQB-2" value="Yeni Butonuna Tıkla" style="whiteSpace=wrap;strokeWidth=2;" vertex="1" parent="1">
          <mxGeometry x="168" y="124" width="201" height="54" as="geometry" />
        </mxCell>
        <mxCell id="AkrHsORLTKQXepWSKzQB-3" value="Firma, İş Alanı, Müşteri Bilgilerini Gir" style="whiteSpace=wrap;strokeWidth=2;" vertex="1" parent="1">
          <mxGeometry x="138" y="228" width="260" height="54" as="geometry" />
        </mxCell>
        <mxCell id="AkrHsORLTKQXepWSKzQB-4" value="Teklif Onay Kutusunu Seç ve Uygula" style="whiteSpace=wrap;strokeWidth=2;" vertex="1" parent="1">
          <mxGeometry x="138" y="332" width="260" height="54" as="geometry" />
        </mxCell>
        <mxCell id="AkrHsORLTKQXepWSKzQB-5" value="Belge Tipi Seç: Q1/Q3" style="whiteSpace=wrap;strokeWidth=2;" vertex="1" parent="1">
          <mxGeometry x="160" y="436" width="217" height="54" as="geometry" />
        </mxCell>
        <mxCell id="AkrHsORLTKQXepWSKzQB-6" value="Onay Butonuna Bas" style="whiteSpace=wrap;strokeWidth=2;" vertex="1" parent="1">
          <mxGeometry x="170" y="540" width="197" height="54" as="geometry" />
        </mxCell>
        <mxCell id="AkrHsORLTKQXepWSKzQB-7" value="Malzeme Ara ve Seç" style="whiteSpace=wrap;strokeWidth=2;" vertex="1" parent="1">
          <mxGeometry x="168" y="644" width="201" height="54" as="geometry" />
        </mxCell>
        <mxCell id="AkrHsORLTKQXepWSKzQB-8" value="Malzeme Bilgileri Otomatik Doldurulur" style="whiteSpace=wrap;strokeWidth=2;" vertex="1" parent="1">
          <mxGeometry x="222" y="748" width="260" height="54" as="geometry" />
        </mxCell>
        <mxCell id="AkrHsORLTKQXepWSKzQB-9" value="Başlangıç/Geçerlilik Tarihi, Şehir, Uzaklık" style="whiteSpace=wrap;strokeWidth=2;" vertex="1" parent="1">
          <mxGeometry x="222" y="852" width="260" height="54" as="geometry" />
        </mxCell>
        <mxCell id="AkrHsORLTKQXepWSKzQB-10" value="Birim Fiyat, Miktar, Teslim Tarihi" style="whiteSpace=wrap;strokeWidth=2;" vertex="1" parent="1">
          <mxGeometry x="222" y="956" width="260" height="54" as="geometry" />
        </mxCell>
        <mxCell id="AkrHsORLTKQXepWSKzQB-11" value="Ödeme Tipi ve Vade Seç" style="whiteSpace=wrap;strokeWidth=2;" vertex="1" parent="1">
          <mxGeometry x="236" y="1060" width="231" height="54" as="geometry" />
        </mxCell>
        <mxCell id="AkrHsORLTKQXepWSKzQB-12" value="Yeni Kalem Var mı?" style="rhombus;strokeWidth=2;whiteSpace=wrap;" vertex="1" parent="1">
          <mxGeometry x="258" y="1164" width="189" height="189" as="geometry" />
        </mxCell>
        <mxCell id="AkrHsORLTKQXepWSKzQB-13" value="Yeni Kalem Ekle" style="whiteSpace=wrap;strokeWidth=2;" vertex="1" parent="1">
          <mxGeometry x="68" y="1425" width="174" height="54" as="geometry" />
        </mxCell>
        <mxCell id="AkrHsORLTKQXepWSKzQB-14" value="Posta Tuşuna Bas" style="whiteSpace=wrap;strokeWidth=2;" vertex="1" parent="1">
          <mxGeometry x="292" y="1425" width="180" height="54" as="geometry" />
        </mxCell>
        <mxCell id="AkrHsORLTKQXepWSKzQB-15" value="Teklif Müşteriye İlet ve Kaydet" style="whiteSpace=wrap;strokeWidth=2;" vertex="1" parent="1">
          <mxGeometry x="251" y="1529" width="260" height="54" as="geometry" />
        </mxCell>
        <mxCell id="AkrHsORLTKQXepWSKzQB-16" value="Müşteri İnceleme" style="whiteSpace=wrap;strokeWidth=2;" vertex="1" parent="1">
          <mxGeometry x="290" y="1633" width="183" height="54" as="geometry" />
        </mxCell>
        <mxCell id="AkrHsORLTKQXepWSKzQB-17" value="Kabul Edildi mi?" style="rhombus;strokeWidth=2;whiteSpace=wrap;" vertex="1" parent="1">
          <mxGeometry x="298" y="1737" width="168" height="168" as="geometry" />
        </mxCell>
        <mxCell id="AkrHsORLTKQXepWSKzQB-18" value="Satış Temsilcisini Bilgilendir" style="whiteSpace=wrap;strokeWidth=2;" vertex="1" parent="1">
          <mxGeometry x="114" y="1977" width="258" height="54" as="geometry" />
        </mxCell>
        <mxCell id="AkrHsORLTKQXepWSKzQB-19" value="Revize Edilsin mi?" style="rhombus;strokeWidth=2;whiteSpace=wrap;" vertex="1" parent="1">
          <mxGeometry x="153" y="2081" width="180" height="180" as="geometry" />
        </mxCell>
        <mxCell id="AkrHsORLTKQXepWSKzQB-20" value="Revize Teklif Oluştur" style="whiteSpace=wrap;strokeWidth=2;" vertex="1" parent="1">
          <mxGeometry x="20" y="2333" width="207" height="54" as="geometry" />
        </mxCell>
        <mxCell id="AkrHsORLTKQXepWSKzQB-21" value="Süreç Sonlandır" style="whiteSpace=wrap;strokeWidth=2;" vertex="1" parent="1">
          <mxGeometry x="277" y="2333" width="171" height="54" as="geometry" />
        </mxCell>
        <mxCell id="AkrHsORLTKQXepWSKzQB-22" value="Onay, Kaşe ve İmza" style="whiteSpace=wrap;strokeWidth=2;" vertex="1" parent="1">
          <mxGeometry x="421" y="1977" width="197" height="54" as="geometry" />
        </mxCell>
        <mxCell id="AkrHsORLTKQXepWSKzQB-23" value="Sisteme İşle" style="whiteSpace=wrap;strokeWidth=2;" vertex="1" parent="1">
          <mxGeometry x="448" y="2144" width="145" height="54" as="geometry" />
        </mxCell>
        <mxCell id="AkrHsORLTKQXepWSKzQB-24" value="" style="curved=1;startArrow=none;endArrow=block;exitX=0.5;exitY=1;entryX=0.5;entryY=0;rounded=0;" edge="1" parent="1" source="AkrHsORLTKQXepWSKzQB-1" target="AkrHsORLTKQXepWSKzQB-2">
          <mxGeometry relative="1" as="geometry">
            <Array as="points" />
          </mxGeometry>
        </mxCell>
        <mxCell id="AkrHsORLTKQXepWSKzQB-25" value="" style="curved=1;startArrow=none;endArrow=block;exitX=0.5;exitY=1;entryX=0.5;entryY=0;rounded=0;" edge="1" parent="1" source="AkrHsORLTKQXepWSKzQB-2" target="AkrHsORLTKQXepWSKzQB-3">
          <mxGeometry relative="1" as="geometry">
            <Array as="points" />
          </mxGeometry>
        </mxCell>
        <mxCell id="AkrHsORLTKQXepWSKzQB-26" value="" style="curved=1;startArrow=none;endArrow=block;exitX=0.5;exitY=1;entryX=0.5;entryY=0;rounded=0;" edge="1" parent="1" source="AkrHsORLTKQXepWSKzQB-3" target="AkrHsORLTKQXepWSKzQB-4">
          <mxGeometry relative="1" as="geometry">
            <Array as="points" />
          </mxGeometry>
        </mxCell>
        <mxCell id="AkrHsORLTKQXepWSKzQB-27" value="" style="curved=1;startArrow=none;endArrow=block;exitX=0.5;exitY=1;entryX=0.5;entryY=0;rounded=0;" edge="1" parent="1" source="AkrHsORLTKQXepWSKzQB-4" target="AkrHsORLTKQXepWSKzQB-5">
          <mxGeometry relative="1" as="geometry">
            <Array as="points" />
          </mxGeometry>
        </mxCell>
        <mxCell id="AkrHsORLTKQXepWSKzQB-28" value="" style="curved=1;startArrow=none;endArrow=block;exitX=0.5;exitY=1;entryX=0.5;entryY=0;rounded=0;" edge="1" parent="1" source="AkrHsORLTKQXepWSKzQB-5" target="AkrHsORLTKQXepWSKzQB-6">
          <mxGeometry relative="1" as="geometry">
            <Array as="points" />
          </mxGeometry>
        </mxCell>
        <mxCell id="AkrHsORLTKQXepWSKzQB-29" value="" style="curved=1;startArrow=none;endArrow=block;exitX=0.5;exitY=1;entryX=0.5;entryY=0;rounded=0;" edge="1" parent="1" source="AkrHsORLTKQXepWSKzQB-6" target="AkrHsORLTKQXepWSKzQB-7">
          <mxGeometry relative="1" as="geometry">
            <Array as="points" />
          </mxGeometry>
        </mxCell>
        <mxCell id="AkrHsORLTKQXepWSKzQB-30" value="" style="curved=1;startArrow=none;endArrow=block;exitX=0.72;exitY=1;entryX=0.5;entryY=0;rounded=0;" edge="1" parent="1" source="AkrHsORLTKQXepWSKzQB-7" target="AkrHsORLTKQXepWSKzQB-8">
          <mxGeometry relative="1" as="geometry">
            <Array as="points">
              <mxPoint x="352" y="723" />
            </Array>
          </mxGeometry>
        </mxCell>
        <mxCell id="AkrHsORLTKQXepWSKzQB-31" value="" style="curved=1;startArrow=none;endArrow=block;exitX=0.5;exitY=1;entryX=0.5;entryY=0;rounded=0;" edge="1" parent="1" source="AkrHsORLTKQXepWSKzQB-8" target="AkrHsORLTKQXepWSKzQB-9">
          <mxGeometry relative="1" as="geometry">
            <Array as="points" />
          </mxGeometry>
        </mxCell>
        <mxCell id="AkrHsORLTKQXepWSKzQB-32" value="" style="curved=1;startArrow=none;endArrow=block;exitX=0.5;exitY=1;entryX=0.5;entryY=0;rounded=0;" edge="1" parent="1" source="AkrHsORLTKQXepWSKzQB-9" target="AkrHsORLTKQXepWSKzQB-10">
          <mxGeometry relative="1" as="geometry">
            <Array as="points" />
          </mxGeometry>
        </mxCell>
        <mxCell id="AkrHsORLTKQXepWSKzQB-33" value="" style="curved=1;startArrow=none;endArrow=block;exitX=0.5;exitY=1;entryX=0.5;entryY=0;rounded=0;" edge="1" parent="1" source="AkrHsORLTKQXepWSKzQB-10" target="AkrHsORLTKQXepWSKzQB-11">
          <mxGeometry relative="1" as="geometry">
            <Array as="points" />
          </mxGeometry>
        </mxCell>
        <mxCell id="AkrHsORLTKQXepWSKzQB-34" value="" style="curved=1;startArrow=none;endArrow=block;exitX=0.5;exitY=1;entryX=0.5;entryY=0;rounded=0;" edge="1" parent="1" source="AkrHsORLTKQXepWSKzQB-11" target="AkrHsORLTKQXepWSKzQB-12">
          <mxGeometry relative="1" as="geometry">
            <Array as="points" />
          </mxGeometry>
        </mxCell>
        <mxCell id="AkrHsORLTKQXepWSKzQB-35" value="Evet" style="curved=1;startArrow=none;endArrow=block;exitX=0.06;exitY=1;entryX=0.71;entryY=0;rounded=0;" edge="1" parent="1" source="AkrHsORLTKQXepWSKzQB-12" target="AkrHsORLTKQXepWSKzQB-13">
          <mxGeometry relative="1" as="geometry">
            <Array as="points">
              <mxPoint x="239" y="1389" />
            </Array>
          </mxGeometry>
        </mxCell>
        <mxCell id="AkrHsORLTKQXepWSKzQB-36" value="" style="curved=1;startArrow=none;endArrow=block;exitX=0.45;exitY=0;entryX=0.16;entryY=1;rounded=0;" edge="1" parent="1" source="AkrHsORLTKQXepWSKzQB-13" target="AkrHsORLTKQXepWSKzQB-7">
          <mxGeometry relative="1" as="geometry">
            <Array as="points">
              <mxPoint x="136" y="1389" />
              <mxPoint x="136" y="723" />
            </Array>
          </mxGeometry>
        </mxCell>
        <mxCell id="AkrHsORLTKQXepWSKzQB-37" value="Hayır" style="curved=1;startArrow=none;endArrow=block;exitX=0.61;exitY=1;entryX=0.5;entryY=0;rounded=0;" edge="1" parent="1" source="AkrHsORLTKQXepWSKzQB-12" target="AkrHsORLTKQXepWSKzQB-14">
          <mxGeometry relative="1" as="geometry">
            <Array as="points">
              <mxPoint x="381" y="1389" />
            </Array>
          </mxGeometry>
        </mxCell>
        <mxCell id="AkrHsORLTKQXepWSKzQB-38" value="" style="curved=1;startArrow=none;endArrow=block;exitX=0.5;exitY=1;entryX=0.5;entryY=0;rounded=0;" edge="1" parent="1" source="AkrHsORLTKQXepWSKzQB-14" target="AkrHsORLTKQXepWSKzQB-15">
          <mxGeometry relative="1" as="geometry">
            <Array as="points" />
          </mxGeometry>
        </mxCell>
        <mxCell id="AkrHsORLTKQXepWSKzQB-39" value="" style="curved=1;startArrow=none;endArrow=block;exitX=0.5;exitY=1;entryX=0.5;entryY=0;rounded=0;" edge="1" parent="1" source="AkrHsORLTKQXepWSKzQB-15" target="AkrHsORLTKQXepWSKzQB-16">
          <mxGeometry relative="1" as="geometry">
            <Array as="points" />
          </mxGeometry>
        </mxCell>
        <mxCell id="AkrHsORLTKQXepWSKzQB-40" value="" style="curved=1;startArrow=none;endArrow=block;exitX=0.5;exitY=1;entryX=0.5;entryY=0;rounded=0;" edge="1" parent="1" source="AkrHsORLTKQXepWSKzQB-16" target="AkrHsORLTKQXepWSKzQB-17">
          <mxGeometry relative="1" as="geometry">
            <Array as="points" />
          </mxGeometry>
        </mxCell>
        <mxCell id="AkrHsORLTKQXepWSKzQB-41" value="Hayır" style="curved=1;startArrow=none;endArrow=block;exitX=0;exitY=0.93;entryX=0.5;entryY=-0.01;rounded=0;" edge="1" parent="1" source="AkrHsORLTKQXepWSKzQB-17" target="AkrHsORLTKQXepWSKzQB-18">
          <mxGeometry relative="1" as="geometry">
            <Array as="points">
              <mxPoint x="243" y="1941" />
            </Array>
          </mxGeometry>
        </mxCell>
        <mxCell id="AkrHsORLTKQXepWSKzQB-42" value="" style="curved=1;startArrow=none;endArrow=block;exitX=0.5;exitY=0.99;entryX=0.5;entryY=0;rounded=0;" edge="1" parent="1" source="AkrHsORLTKQXepWSKzQB-18" target="AkrHsORLTKQXepWSKzQB-19">
          <mxGeometry relative="1" as="geometry">
            <Array as="points" />
          </mxGeometry>
        </mxCell>
        <mxCell id="AkrHsORLTKQXepWSKzQB-43" value="Evet" style="curved=1;startArrow=none;endArrow=block;exitX=0.03;exitY=1;entryX=0.5;entryY=0;rounded=0;" edge="1" parent="1" source="AkrHsORLTKQXepWSKzQB-19" target="AkrHsORLTKQXepWSKzQB-20">
          <mxGeometry relative="1" as="geometry">
            <Array as="points">
              <mxPoint x="123" y="2297" />
            </Array>
          </mxGeometry>
        </mxCell>
        <mxCell id="AkrHsORLTKQXepWSKzQB-44" value="Hayır" style="curved=1;startArrow=none;endArrow=block;exitX=0.97;exitY=1;entryX=0.5;entryY=0;rounded=0;" edge="1" parent="1" source="AkrHsORLTKQXepWSKzQB-19" target="AkrHsORLTKQXepWSKzQB-21">
          <mxGeometry relative="1" as="geometry">
            <Array as="points">
              <mxPoint x="362" y="2297" />
            </Array>
          </mxGeometry>
        </mxCell>
        <mxCell id="AkrHsORLTKQXepWSKzQB-45" value="Evet" style="curved=1;startArrow=none;endArrow=block;exitX=1;exitY=0.93;entryX=0.5;entryY=-0.01;rounded=0;" edge="1" parent="1" source="AkrHsORLTKQXepWSKzQB-17" target="AkrHsORLTKQXepWSKzQB-22">
          <mxGeometry relative="1" as="geometry">
            <Array as="points">
              <mxPoint x="520" y="1941" />
            </Array>
          </mxGeometry>
        </mxCell>
        <mxCell id="AkrHsORLTKQXepWSKzQB-46" value="" style="curved=1;startArrow=none;endArrow=block;exitX=0.5;exitY=0.99;entryX=0.5;entryY=-0.01;rounded=0;" edge="1" parent="1" source="AkrHsORLTKQXepWSKzQB-22" target="AkrHsORLTKQXepWSKzQB-23">
          <mxGeometry relative="1" as="geometry">
            <Array as="points" />
          </mxGeometry>
        </mxCell>
      </root>
    </mxGraphModel>
  </diagram>
</mxfile>
